<?xml version="1.0" encoding="UTF-8" standalone="no"?>
<!-- Created with Inkscape (http://www.inkscape.org/) -->

<svg
   xmlns:dc="http://purl.org/dc/elements/1.1/"
   xmlns:cc="http://creativecommons.org/ns#"
   xmlns:rdf="http://www.w3.org/1999/02/22-rdf-syntax-ns#"
   xmlns:svg="http://www.w3.org/2000/svg"
   xmlns="http://www.w3.org/2000/svg"
   version="1.1"
   width="2351.3452"
   height="2351.3452"
   id="svg2"
   xml:space="preserve"><metadata
     id="metadata8"><rdf:RDF><cc:Work
         rdf:about=""><dc:format>image/svg+xml</dc:format><dc:type
           rdf:resource="http://purl.org/dc/dcmitype/StillImage" /><dc:title></dc:title></cc:Work></rdf:RDF></metadata><defs
     id="defs6"><clipPath
       id="clipPath86"><path
         d="m 0,2055.118 2055.118,0 L 2055.118,0 0,0 0,2055.118 z"
         id="path88" /></clipPath><clipPath
       id="clipPath94"><path
         d="m 865.364,1005.75 383.996,0 0,-346.996 -383.996,0 0,346.996 z"
         id="path96" /></clipPath><clipPath
       id="clipPath3927"><path
         d="m 1486.0835,1425.7588 a 1043.7375,1033.7972 0 1 1 -2087.47513,0 1043.7375,1033.7972 0 1 1 2087.47513,0 z"
         transform="matrix(0.89346032,0,0,-0.90205128,632.34143,2313.6676)"
         id="path3929"
         style="fill:none;stroke:#ffffff;stroke-width:103.87554932;stroke-miterlimit:4;stroke-dasharray:none;display:inline" /></clipPath></defs><g
     transform="matrix(1.25,0,0,-1.25,-108.77734,2460.1227)"
     id="g10"><g
       id="g3933"><g
         clip-path="url(#clipPath3927)"
         id="g3869"><path
           d="m 28.364,2026.754 2000,0 0,-2000 -2000,0 0,2000 z"
           id="path12"
           style="fill:#f3f4f4;fill-opacity:1;fill-rule:evenodd;stroke:none" /><path
           d="m 478.364,746.754 210,0 0,-190 -210,0 0,190 z"
           id="path14"
           style="fill:#7fc7ed;fill-opacity:1;fill-rule:evenodd;stroke:none" /><path
           d="m 1878.364,196.754 150,0 0,-170 -150,0 0,170 z"
           id="path16"
           style="fill:#7fc7ed;fill-opacity:1;fill-rule:evenodd;stroke:none" /><path
           d="m 738.364,456.754 260,0 0,-209.67 -260,0 0,209.67 z"
           id="path18"
           style="fill:#7fc7ed;fill-opacity:1;fill-rule:evenodd;stroke:none" /><path
           d="m 1538.364,2026.754 290,0 0,-220 -290,0 0,220 z"
           id="path20"
           style="fill:#7fc7ed;fill-opacity:1;fill-rule:evenodd;stroke:none" /><path
           d="m 1168.364,1756.754 660,0 0,-810 -660,0 0,810 z"
           id="path22"
           style="fill:#83cdac;fill-opacity:1;fill-rule:evenodd;stroke:none" /><path
           d="m 28.364,1756.754 140,0 0,-960 -140,0 0,960 z"
           id="path24"
           style="fill:#83cdac;fill-opacity:1;fill-rule:evenodd;stroke:none" /><path
           d="m 478.364,196.754 210,0 0,-170 -210,0 0,170 z"
           id="path26"
           style="fill:#83cdac;fill-opacity:1;fill-rule:evenodd;stroke:none" /><path
           d="m 1118.364,1506.754 -950,0 0,20 950,0 0,-20 z"
           id="path28"
           style="fill:#ececec;fill-opacity:1;fill-rule:evenodd;stroke:none" /><path
           d="m 738.364,996.754 -570,0 0,20 570,0 0,-20 z"
           id="path30"
           style="fill:#ececec;fill-opacity:1;fill-rule:evenodd;stroke:none" /><path
           d="m 918.364,1906.754 -890,0 0,20 890,0 0,-20 z"
           id="path32"
           style="fill:#ececec;fill-opacity:1;fill-rule:evenodd;stroke:none" /><path
           d="m 478.364,606.754 -450,0 0,20 450,0 0,-20 z"
           id="path34"
           style="fill:#ececec;fill-opacity:1;fill-rule:evenodd;stroke:none" /><path
           d="m 2028.364,1586.754 -150,0 0,20 150,0 0,-20 z"
           id="path36"
           style="fill:#ececec;fill-opacity:1;fill-rule:evenodd;stroke:none" /><path
           d="m 2028.364,1016.754 -150,0 0,20 150,0 0,-20 z"
           id="path38"
           style="fill:#ececec;fill-opacity:1;fill-rule:evenodd;stroke:none" /><path
           d="m 2028.364,766.754 -150,0 0,20 150,0 0,-20 z"
           id="path40"
           style="fill:#ececec;fill-opacity:1;fill-rule:evenodd;stroke:none" /><path
           d="m 738.364,346.754 -710,0 0,20 710,0 0,-20 z"
           id="path42"
           style="fill:#ececec;fill-opacity:1;fill-rule:evenodd;stroke:none" /><path
           d="m 1828.364,656.754 -780,0 0,20 780,0 0,-20 z"
           id="path44"
           style="fill:#ececec;fill-opacity:1;fill-rule:evenodd;stroke:none" /><path
           d="m 898.364,2026.754 20,0 0,-910 -20,0 0,910 z"
           id="path46"
           style="fill:#ececec;fill-opacity:1;fill-rule:evenodd;stroke:none" /><path
           d="m 898.364,196.754 20,0 0,-170 -20,0 0,170 z"
           id="path48"
           style="fill:#ececec;fill-opacity:1;fill-rule:evenodd;stroke:none" /><path
           d="m 1578.364,676.754 20,0 0,-430 -20,0 0,430 z"
           id="path50"
           style="fill:#ececec;fill-opacity:1;fill-rule:evenodd;stroke:none" /><path
           d="m 2028.364,1756.754 -2000,0 0,50 2000,0 0,-50 z"
           id="path52"
           style="fill:#ffffff;fill-opacity:1;fill-rule:evenodd;stroke:none" /><path
           d="m 738.364,746.754 -710,0 0,50 710,0 0,-50 z"
           id="path54"
           style="fill:#ffffff;fill-opacity:1;fill-rule:evenodd;stroke:none" /><path
           d="m 1878.364,896.754 -1147,0 0,50 1147,0 0,-50 z"
           id="path56"
           style="fill:#ffffff;fill-opacity:1;fill-rule:evenodd;stroke:none" /><path
           d="m 2028.364,196.754 -2000,0 0,50 2000,0 0,-50 z"
           id="path58"
           style="fill:#ffffff;fill-opacity:1;fill-rule:evenodd;stroke:none" /><path
           d="m 2028.364,1116.754 -1340,0 0,50 1340,0 0,-50 z"
           id="path60"
           style="fill:#ffffff;fill-opacity:1;fill-rule:evenodd;stroke:none" /><path
           d="m 168.364,2026.754 50,0 0,-2000 -50,0 0,2000 z"
           id="path62"
           style="fill:#ffffff;fill-opacity:1;fill-rule:evenodd;stroke:none" /><path
           d="m 1828.364,2026.754 50,0 0,-2000 -50,0 0,2000 z"
           id="path64"
           style="fill:#ffffff;fill-opacity:1;fill-rule:evenodd;stroke:none" /><path
           d="m 688.364,2026.754 50,0 0,-2000 -50,0 0,2000 z"
           id="path66"
           style="fill:#ffffff;fill-opacity:1;fill-rule:evenodd;stroke:none" /><path
           d="m 1118.364,1806.754 50,0 0,-910 -50,0 0,910 z"
           id="path68"
           style="fill:#ffffff;fill-opacity:1;fill-rule:evenodd;stroke:none" /><path
           d="m 998.364,896.754 50,0 0,-700 -50,0 0,700 z"
           id="path70"
           style="fill:#ffffff;fill-opacity:1;fill-rule:evenodd;stroke:none" /><path
           d="m 1488.364,2026.754 50,0 0,-910 -50,0 0,910 z"
           id="path72"
           style="fill:#ffffff;fill-opacity:1;fill-rule:evenodd;stroke:none" /><path
           d="m 378.364,2026.754 100,0 0,-2000 -100,0 0,2000 z"
           id="path74"
           style="fill:#fee379;fill-opacity:1;fill-rule:evenodd;stroke:none" /><path
           d="m 1328.364,2026.754 100,0 0,-2000 -100,0 0,2000 z"
           id="path76"
           style="fill:#fee379;fill-opacity:1;fill-rule:evenodd;stroke:none" /><path
           d="m 2028.364,1286.754 -2000,0 0,100 2000,0 0,-100 z"
           id="path78"
           style="fill:#fee379;fill-opacity:1;fill-rule:evenodd;stroke:none" /><path
           d="m 2027.364,456.754 -1549,0 0,100 1549,0 0,-100 z"
           id="path80"
           style="fill:#fee379;fill-opacity:1;fill-rule:evenodd;stroke:none" /><g
           id="g82"><g
             clip-path="url(#clipPath86)"
             id="g84"><g
               id="g90"><g
                 id="g92" /><g
                 id="g98"><g
                   clip-path="url(#clipPath94)"
                   id="g100"
                   style="opacity:0.30000299"><g
                     transform="translate(866.5742,658.7539)"
                     id="g102"><path
                       d="m 0,0 c 48.69,46.36 154.72,112.35 247.51,144.89 50.55,17.73 86.91,39.46 101.97,55.07 52.3,54.2 41.88,116.38 -23.29,138.89 -65.17,22.5 -160.41,-3.19 -212.71,-57.4 C 98.41,265.85 85.14,236.14 84.75,201.09 84.05,136.75 41.55,48.83 -1.21,0.42 L 0,0 z"
                       id="path104"
                       style="fill:#d0d0d0;fill-opacity:1;fill-rule:nonzero;stroke:none" /></g></g></g></g><g
               transform="translate(867.2441,659.2939)"
               id="g106"><path
                 d="m 0,0 c 4.29,83.52 50.31,219.18 117.02,304.56 36.34,46.52 53.06,91.85 53.06,119.36 0,95.54 -76.54,173 -170.96,173 -94.42,0 -170.96,-77.46 -170.96,-173 0,-27.51 16.72,-72.84 53.06,-119.36 C -52.07,219.18 -6.05,83.52 -1.76,0 L 0,0 z"
                 id="path108"
                 style="fill:#de5764;fill-opacity:1;fill-rule:nonzero;stroke:none" /></g><g
               transform="translate(867.2441,659.2939)"
               id="g110"><path
                 d="m 0,0 c 4.29,83.52 50.31,219.18 117.02,304.56 36.34,46.52 53.06,91.85 53.06,119.36 0,95.54 -76.54,173 -170.96,173 -94.42,0 -170.96,-77.46 -170.96,-173 0,-27.51 16.72,-72.84 53.06,-119.36 C -52.07,219.18 -6.05,83.52 -1.76,0 L 0,0 z"
                 id="path112"
                 style="fill:none;stroke:#ec5c6a;stroke-width:10;stroke-linecap:round;stroke-linejoin:round;stroke-miterlimit:10;stroke-opacity:1;stroke-dasharray:none" /></g><g
               transform="translate(803.8643,1087.2539)"
               id="g114"><path
                 d="M 0,0 C 0,34.52 27.98,62.5 62.5,62.5 97.02,62.5 125,34.52 125,0 125,-34.52 97.02,-62.5 62.5,-62.5 27.98,-62.5 0,-34.52 0,0"
                 id="path116"
                 style="fill:#ffffff;fill-opacity:1;fill-rule:evenodd;stroke:none" /></g><g
               transform="translate(803.8643,1087.2539)"
               id="g118"><path
                 d="M 0,0 C 0,34.52 27.98,62.5 62.5,62.5 97.02,62.5 125,34.52 125,0 125,-34.52 97.02,-62.5 62.5,-62.5 27.98,-62.5 0,-34.52 0,0 z"
                 id="path120"
                 style="fill:none;stroke:#ec5c6a;stroke-width:5;stroke-linecap:round;stroke-linejoin:round;stroke-miterlimit:10;stroke-opacity:1;stroke-dasharray:none" /></g></g></g></g></g></g></svg>